<svg width="20" height="20" viewBox="0 0 20 20" fill="none" xmlns="http://www.w3.org/2000/svg">
<path d="M18.8961 0H1.10389C0.81112 0 0.530341 0.116302 0.323322 0.323322C0.116302 0.530341 0 0.81112 0 1.10389V18.8964C7.36591e-05 19.1891 0.116409 19.4698 0.32342 19.6768C0.530431 19.8837 0.811168 20 1.10389 20H10.6825V12.255H8.07611V9.23667H10.6825V7.01056C10.6825 4.42722 12.2603 3.02083 14.5647 3.02083C15.6686 3.02083 16.6172 3.10278 16.8939 3.13972V5.83944L15.2956 5.84028C14.0422 5.84028 13.7997 6.43583 13.7997 7.30972V9.23694H16.7886L16.3994 12.2553H13.7997V20H18.8964C19.1891 19.9999 19.4698 19.8836 19.6768 19.6766C19.8837 19.4696 20 19.1888 20 18.8961V1.10389C20 0.81112 19.8837 0.530341 19.6767 0.323322C19.4697 0.116302 19.1889 0 18.8961 0Z" fill="white"/>
</svg>
