<svg width="141" height="37" viewBox="0 0 141 37" fill="none" xmlns="http://www.w3.org/2000/svg">
<g opacity="0.7">
<path d="M7.46506 27.6318C8.24767 27.6318 9.03028 28.0231 9.42158 28.4144C9.81289 28.8057 10.2042 29.5884 10.2042 30.371V31.1536C10.2042 31.9362 9.81289 32.7188 9.42158 33.1101C9.03028 33.5014 8.24767 33.8927 7.46506 33.8927H2.3781V36.2405C2.3781 36.2405 2.3781 36.6318 1.9868 36.6318H0.421578C0.421578 36.6318 0.0302734 36.6318 0.0302734 36.2405V28.0231C0.421578 27.6318 0.421578 27.6318 0.812882 27.6318H7.46506ZM2.3781 31.9362H7.07375C7.46506 31.9362 7.85636 31.9362 7.85636 31.5449C7.85636 31.5449 8.24767 31.1536 8.24767 30.7623V30.371C8.24767 29.9797 8.24767 29.5884 7.85636 29.5884C7.46506 29.5884 7.46506 29.1971 7.07375 29.1971H2.3781V31.9362Z" fill="white"/>
<path d="M17.2475 27.6318C17.2475 27.6318 17.6388 27.6318 17.2475 27.6318L17.6388 31.1536H23.5084V28.0231C23.5084 28.0231 23.5084 27.6318 23.8997 27.6318H25.0736C25.0736 27.6318 25.4649 27.6318 25.4649 28.0231V36.2405C25.4649 36.2405 25.4649 36.6318 25.0736 36.6318H23.5084C23.5084 36.6318 23.1171 36.6318 23.1171 36.2405V32.7188H17.6388V36.2405C17.6388 36.2405 17.6388 36.6318 17.2475 36.6318H15.6823C15.6823 36.6318 15.291 36.6318 15.291 36.2405V28.0231C15.291 28.0231 15.291 27.6318 15.6823 27.6318H17.2475Z" fill="white"/>
<path d="M36.8129 27.6318C37.2042 27.6318 37.5955 27.6318 37.5955 27.6318C37.5955 27.6318 37.9868 28.0231 38.3781 28.4144L42.6825 35.8492C42.6825 35.8492 42.6825 35.8492 42.6825 36.2405H41.1173H40.726L39.9434 34.6753H33.6825L32.8999 36.2405C32.8999 36.2405 32.8999 36.2405 32.5086 36.2405H30.9434C30.9434 36.2405 30.9434 36.2405 30.9434 35.8492L34.8564 28.4144C34.8564 28.0231 35.2477 28.0231 35.2477 27.6318C35.639 27.6318 35.639 27.6318 36.0303 27.6318H36.8129ZM34.4651 33.1101H38.7694L36.8129 29.5884L34.4651 33.1101Z" fill="white"/>
<path d="M54.8127 27.6318C55.5953 27.6318 56.3779 28.0231 56.7692 28.4144C57.1605 28.8057 57.5518 29.5884 57.5518 30.371V31.1536C57.5518 31.9362 57.5518 32.3275 57.1605 32.7188C56.7692 33.1101 56.3779 33.5014 55.5953 33.5014L57.5518 36.2405C57.5518 36.2405 57.5518 36.2405 57.1605 36.2405H55.5953C55.5953 36.2405 55.5953 36.2405 55.204 36.2405C54.8127 36.2405 55.204 36.2405 55.204 36.2405L53.2475 33.5014H49.3345V35.8492C49.3345 35.8492 49.3345 36.2405 48.9431 36.2405H47.7692C47.7692 36.2405 47.3779 36.2405 47.3779 35.8492V28.0231C47.3779 27.6318 47.3779 27.6318 47.7692 27.6318H54.8127ZM49.7258 31.9362H54.4214C54.8127 31.9362 55.204 31.9362 55.204 31.5449C55.204 31.1536 55.5953 31.1536 55.5953 30.7623V30.371C55.5953 29.9797 55.5953 29.5884 55.204 29.5884C55.204 29.5884 54.8127 29.1971 54.4214 29.1971H49.7258V31.9362Z" fill="white"/>
<path d="M65.7692 27.6318C66.1605 27.6318 66.1605 27.6318 66.1605 27.6318H66.5518C66.5518 27.6318 66.5518 27.6318 66.9431 28.0231C67.3344 28.4144 66.9431 28.4144 67.3344 28.4144L70.0735 34.284L72.8127 28.4144C72.8127 28.0231 72.8127 28.0231 73.204 28.0231C73.204 28.0231 73.204 27.6318 73.5953 27.6318H73.9866H74.3779H75.5518C75.9431 27.6318 76.3344 27.6318 76.3344 28.0231C76.3344 28.4144 76.7257 28.4144 76.7257 29.1971V36.2405C76.7257 36.2405 76.7257 36.6318 76.3344 36.6318H75.1605C75.1605 36.6318 74.7692 36.6318 74.7692 36.2405V29.5884L72.4214 35.0666C72.4214 35.4579 72.03 35.4579 72.03 35.4579L71.6387 35.8492C71.6387 35.8492 71.2474 35.8492 71.2474 36.2405H70.8561H70.0735C69.6822 36.2405 69.6822 36.2405 69.6822 36.2405C69.6822 36.2405 69.2909 36.2405 69.2909 35.8492L68.8996 35.4579L68.5083 35.0666L66.1605 29.5884V36.2405C66.1605 36.2405 66.1605 36.6318 65.7692 36.6318H64.5953C64.5953 36.6318 64.204 36.6318 64.204 36.2405V28.8057C64.204 28.4144 64.204 28.0231 64.5953 27.6318C63.8126 27.6318 63.8126 27.6318 64.5953 27.6318H65.7692Z" fill="white"/>
<path d="M84.1604 27.6318C84.5517 27.6318 84.5517 27.6318 84.1604 27.6318L84.5517 36.2405C84.5517 36.2405 84.5517 36.6318 84.1604 36.6318H82.9865C82.9865 36.6318 82.5952 36.6318 82.5952 36.2405V28.0231C82.5952 28.0231 82.5952 27.6318 82.9865 27.6318H84.1604Z" fill="white"/>
<path d="M99.0303 27.6318C99.4216 27.6318 99.4216 27.6318 99.0303 27.6318L99.4216 29.1971C99.4216 29.1971 99.4216 29.5884 99.0303 29.5884H92.7694C92.3781 29.5884 92.3781 29.5884 92.3781 29.5884V29.9797V30.371C92.3781 30.7623 92.7694 31.1536 93.1607 31.1536H97.4651C98.2477 31.1536 98.639 31.1536 99.0303 31.5449C99.4216 31.9362 99.4216 32.3275 99.4216 33.1101V34.284C99.4216 35.0666 99.4216 35.4579 99.0303 35.8492C98.639 36.2405 98.2477 36.2405 97.4651 36.2405H90.4216C90.4216 36.2405 90.0303 36.2405 90.0303 35.8492V35.0666C90.0303 35.0666 90.0303 34.6753 90.4216 34.6753H97.0738C97.4651 34.6753 97.4651 34.6753 97.4651 34.6753V34.284V33.5014C97.4651 33.1101 97.0738 32.7188 96.6824 32.7188H91.9868C91.2042 32.7188 90.8129 32.7188 90.4216 32.3275C90.0303 31.9362 90.0303 31.5449 90.0303 30.7623V29.5884C90.0303 28.8057 90.0303 28.4144 90.4216 28.0231C91.2042 27.6318 91.5955 27.6318 92.3781 27.6318H99.0303Z" fill="white"/>
<path d="M106.856 27.6318C107.248 27.6318 107.248 27.6318 106.856 27.6318L107.248 36.2405C107.248 36.2405 107.248 36.6318 106.856 36.6318H105.682C105.682 36.6318 105.291 36.6318 105.291 36.2405V28.0231C105.291 27.6318 105.291 27.6318 105.682 27.6318H106.856Z" fill="white"/>
<path d="M120.552 27.6318C121.335 27.6318 121.726 27.6318 122.117 27.6318C122.509 27.6318 122.9 28.0231 123.291 28.0231C123.682 28.4144 123.682 28.8057 124.074 29.1971C124.074 29.5884 124.074 29.9797 124.074 30.7623V33.1101C124.074 33.8927 124.074 34.284 124.074 34.6753C124.074 35.0666 123.682 35.4579 123.291 35.8492C122.9 36.2405 122.509 36.2405 122.117 36.2405C121.726 36.2405 120.943 36.2405 120.552 36.2405H116.639C115.856 36.2405 115.465 36.2405 115.074 36.2405C114.682 36.2405 114.291 35.8492 113.9 35.8492C113.509 35.8492 113.509 35.0666 113.117 34.6753C112.726 34.284 113.117 33.8927 113.117 33.1101V30.7623C113.117 29.9797 113.117 29.5884 113.117 29.1971C113.117 28.8057 113.509 28.4144 113.9 28.0231C114.291 27.6318 114.682 27.6318 115.074 27.6318C115.465 27.6318 116.248 27.6318 116.639 27.6318H120.552ZM115.074 33.1101C115.074 33.5014 115.074 33.8927 115.074 33.8927C115.074 34.284 115.074 34.284 115.465 34.284L115.856 34.6753C116.248 34.6753 116.248 34.6753 116.639 34.6753H120.552C120.943 34.6753 121.335 34.6753 121.335 34.6753C121.726 34.6753 121.726 34.6753 121.726 34.284L122.117 33.8927C122.117 33.5014 122.117 33.5014 122.117 33.1101V31.1536C122.117 30.7623 122.117 30.371 122.117 30.371C122.117 29.9797 122.117 29.9797 121.726 29.9797L121.335 29.5884C120.943 29.5884 120.943 29.5884 120.552 29.5884H116.639C116.248 29.5884 115.856 29.5884 115.856 29.5884C115.465 29.5884 115.465 29.5884 115.465 29.9797L115.074 30.371C115.074 30.7623 115.074 30.7623 115.074 31.1536V33.1101Z" fill="white"/>
<path d="M131.9 27.6318C132.291 27.6318 132.291 27.6318 132.291 27.6318H132.682C132.682 27.6318 133.074 27.6318 133.074 28.0231L133.465 28.4144L138.161 34.6753V28.0231C138.161 28.0231 138.161 27.6318 138.552 27.6318H139.726C140.509 27.6318 140.509 27.6318 140.509 28.0231V35.0666C140.509 35.4579 140.509 35.8492 140.117 36.2405C140.117 36.2405 139.726 36.6318 139.335 36.6318H138.161H137.769H137.378C137.378 36.6318 136.987 36.6318 136.987 36.2405L136.596 35.8492L131.9 29.5883V36.2405C131.9 36.2405 131.9 36.6318 131.509 36.6318H130.335C130.335 36.6318 129.943 36.6318 129.943 36.2405V28.8057C129.943 28.4144 129.943 28.0231 130.335 27.6318C130.335 27.6318 130.726 27.2405 131.117 27.2405H131.9V27.6318Z" fill="white"/>
<path d="M0.421387 21.3709V6.50137H19.204C20.7692 6.50137 21.9431 6.89268 22.7257 7.67529C23.5083 8.4579 23.8996 9.63181 23.8996 10.8057V20.9796H19.9866V11.5883C19.9866 10.4144 19.204 10.0231 18.0301 10.0231H14.117V21.3709H10.204V9.63181H4.33443V20.9796H0.421387V21.3709Z" fill="white"/>
<path d="M51.6821 21.371V0.631836H55.9865V20.9797H51.6821V21.371ZM52.4647 21.371V17.8492H62.2474C63.4213 17.8492 64.5952 17.4579 64.9865 16.6753C65.7691 16.284 66.1604 15.1101 66.1604 13.9362C66.1604 12.371 65.7691 11.5884 64.9865 10.8057C64.2039 10.0231 63.4213 9.63184 62.2474 9.63184H52.4647V6.5014H62.2474C64.9865 6.5014 66.943 7.28401 68.1169 8.45792C69.6821 9.63184 70.0734 11.5884 70.0734 13.9362C70.0734 16.284 69.2908 18.2405 68.1169 19.4144C66.5517 20.5884 64.5952 21.371 62.2474 21.371H52.4647Z" fill="white"/>
<path d="M77.1168 1.02316H72.8125V4.1536H77.1168V1.02316Z" fill="white"/>
<path d="M77.1168 6.50137H72.8125V21.3709H77.1168V6.50137Z" fill="white"/>
<path d="M85.3346 21.3709L79.0737 6.50137H83.3781L88.0737 17.8492H89.639L94.3346 6.50137H98.639L92.3781 21.3709H85.3346Z" fill="white"/>
<path d="M105.291 21.3709C103.726 21.3709 102.552 20.9796 101.769 20.197C100.987 19.4144 100.595 18.2405 100.595 17.0666V6.50137H104.9V16.284C104.9 17.4579 105.291 17.8492 106.465 17.8492H112.334C113.508 17.8492 113.9 17.4579 113.9 16.284V6.50137H118.204V16.6753C118.204 17.8492 117.813 19.0231 117.03 19.8057C116.247 20.5883 115.073 20.9796 113.508 20.9796H105.291V21.3709Z" fill="white"/>
<path d="M128.769 21.3709C126.03 21.3709 124.074 20.5883 122.9 19.4144C121.335 18.2405 120.943 16.284 120.943 13.9362C120.943 11.5883 121.726 9.63181 122.9 8.4579C124.465 7.28398 126.422 6.50137 128.769 6.50137H135.813C137.378 6.50137 138.943 6.89268 139.726 7.67529C140.509 8.4579 140.9 9.63181 140.9 11.197C140.9 14.3275 139.335 15.8927 135.813 15.8927H124.856C125.248 17.8492 126.422 18.6318 128.378 18.6318H140.117V21.7622H128.769V21.3709ZM128.769 9.63181C126.813 9.63181 125.639 10.4144 125.248 11.9796H135.813C136.204 12.3709 136.596 11.9796 136.596 11.9796C136.987 11.5883 136.987 11.5883 136.987 11.197C136.987 10.4144 136.596 10.0231 135.813 10.0231H128.769V9.63181Z" fill="white"/>
<path d="M41.1172 11.5884V6.8927H31.7259L27.0303 11.5884V16.6753L31.7259 20.9797V16.284V11.5884H41.1172Z" fill="white"/>
<path d="M35.6387 16.284V20.9797H44.6387L49.7256 16.284V11.197L45.03 6.8927L44.6387 11.5884V16.284H35.6387Z" fill="white"/>
</g>
</svg>
