<svg width="40" height="36" viewBox="0 0 40 36" fill="none" xmlns="http://www.w3.org/2000/svg">
<path d="M36.2422 22.1538H33.473V24.923H36.2422V33.2307H3.01142V24.923H5.78065V22.1538H3.01142C2.2772 22.1545 1.57326 22.4465 1.05409 22.9657C0.534913 23.4849 0.242921 24.1888 0.242188 24.923V33.2307C0.242921 33.965 0.534913 34.6689 1.05409 35.1881C1.57326 35.7072 2.2772 35.9992 3.01142 36H36.2422C36.9764 35.9992 37.6803 35.7072 38.1995 35.1881C38.7187 34.6689 39.0107 33.965 39.0114 33.2307V24.923C39.0107 24.1888 38.7187 23.4849 38.1995 22.9657C37.6803 22.4465 36.9764 22.1545 36.2422 22.1538Z" fill="#F15B27"/>
<path d="M7.16538 30.4616C7.93008 30.4616 8.54999 29.8417 8.54999 29.077C8.54999 28.3123 7.93008 27.6924 7.16538 27.6924C6.40068 27.6924 5.78076 28.3123 5.78076 29.077C5.78076 29.8417 6.40068 30.4616 7.16538 30.4616Z" fill="#F15B27"/>
<path d="M18.2421 22.1537H8.5498V12.4614H18.2421V22.1537ZM11.319 19.3845H15.4729V15.2307H11.319V19.3845Z" fill="#F19427"/>
<path d="M30.7035 22.1537H21.0112V12.4614H30.7035V22.1537ZM23.7805 19.3845H27.9343V15.2307H23.7805V19.3845Z" fill="#F15B27"/>
<path d="M18.2421 9.69231H8.5498V0H18.2421V9.69231ZM11.319 6.92308H15.4729V2.76923H11.319V6.92308Z" fill="#F15B27"/>
<path d="M30.7035 9.69231H21.0112V0H30.7035V9.69231ZM23.7805 6.92308H27.9343V2.76923H23.7805V6.92308Z" fill="#F19427"/>
</svg>
