<svg width="41" height="41" viewBox="0 0 41 41" fill="none" xmlns="http://www.w3.org/2000/svg">
<path d="M32.524 19.2834C33.0907 19.2834 33.6407 19.3334 34.1907 19.4L34.2074 0.116699L0.874023 33.45H20.1407C20.074 32.9 20.024 32.35 20.024 31.7834C20.024 24.8834 25.624 19.2834 32.524 19.2834Z" fill="#F19427"/>
<path d="M38.7738 31.7835C38.7738 32.0669 38.7405 32.3335 38.7071 32.6002L40.4905 33.9835C40.5654 34.0478 40.6161 34.1356 40.6343 34.2326C40.6525 34.3296 40.637 34.4299 40.5905 34.5169L38.9238 37.4002C38.8071 37.5835 38.5905 37.6502 38.4071 37.5835L36.3238 36.7502C35.9071 37.0835 35.4238 37.3502 34.9238 37.5669L34.6071 39.7669C34.5738 39.9669 34.3905 40.1169 34.1905 40.1169H30.8571C30.6405 40.1169 30.4738 39.9669 30.4405 39.7669L30.1238 37.5669C29.6071 37.3669 29.1405 37.0835 28.7071 36.7502L26.6405 37.5835C26.4405 37.6502 26.2238 37.5835 26.1238 37.4002L24.4571 34.5169C24.4106 34.4299 24.3951 34.3296 24.4133 34.2326C24.4315 34.1356 24.4822 34.0478 24.5571 33.9835L26.3238 32.6002C26.2553 32.0579 26.2553 31.5092 26.3238 30.9669L24.5571 29.5835C24.3905 29.4502 24.3571 29.2335 24.4571 29.0502L26.1238 26.1669C26.2405 25.9835 26.4571 25.9169 26.6405 25.9835L28.7071 26.8169C29.1405 26.4835 29.6238 26.2169 30.1238 26.0002L30.4405 23.8002C30.4738 23.6002 30.6571 23.4502 30.8571 23.4502H34.1905C34.3905 23.4502 34.5738 23.6002 34.5905 23.8002L34.9071 26.0002C35.4238 26.2002 35.8905 26.4835 36.3238 26.8169L38.3905 25.9835C38.5905 25.9169 38.8071 25.9835 38.9071 26.1669L40.5738 29.0502C40.6203 29.1372 40.6358 29.2375 40.6176 29.3345C40.5994 29.4314 40.5487 29.5193 40.4738 29.5835L38.7071 30.9669C38.7571 31.2335 38.7738 31.5002 38.7738 31.7835Z" fill="#F15B27"/>
<circle cx="32.5215" cy="31.7837" r="3.75" fill="white"/>
</svg>
