<svg width="47" height="37" viewBox="0 0 47 37" fill="none" xmlns="http://www.w3.org/2000/svg">
<path d="M33.5894 14.6809H13.8971C13.6714 14.6809 13.4868 14.8655 13.4868 15.0912V35.7066C13.4868 35.9322 13.6714 36.1168 13.8971 36.1168H33.5894C33.815 36.1168 33.9996 35.9322 33.9996 35.7066V15.0912C33.9996 14.8655 33.815 14.6809 33.5894 14.6809ZM16.7689 17.963H30.7176V23.963H16.7689V17.963ZM30.7176 32.8348H16.7689V26.8348H30.7176V32.8348Z" fill="#F15B27"/>
<path d="M19.2305 30.1679C19.2305 30.6031 19.4034 31.0205 19.7111 31.3283C20.0189 31.636 20.4363 31.8089 20.8715 31.8089C21.3067 31.8089 21.7241 31.636 22.0319 31.3283C22.3396 31.0205 22.5125 30.6031 22.5125 30.1679C22.5125 29.7327 22.3396 29.3153 22.0319 29.0075C21.7241 28.6998 21.3067 28.5269 20.8715 28.5269C20.4363 28.5269 20.0189 28.6998 19.7111 29.0075C19.4034 29.3153 19.2305 29.7327 19.2305 30.1679ZM19.2305 21.0397C19.2305 21.4749 19.4034 21.8923 19.7111 22.2001C20.0189 22.5078 20.4363 22.6807 20.8715 22.6807C21.3067 22.6807 21.7241 22.5078 22.0319 22.2001C22.3396 21.8923 22.5125 21.4749 22.5125 21.0397C22.5125 20.6045 22.3396 20.1871 22.0319 19.8793C21.7241 19.5716 21.3067 19.3987 20.8715 19.3987C20.4363 19.3987 20.0189 19.5716 19.7111 19.8793C19.4034 20.1871 19.2305 20.6045 19.2305 21.0397Z" fill="#F15B27"/>
<path d="M39.0969 10.727C36.7482 4.52696 30.7636 0.116699 23.7533 0.116699C16.7431 0.116699 10.7584 4.52183 8.40973 10.7218C3.99435 11.8859 0.743064 15.9218 0.768705 20.7116C0.799475 26.0654 4.95332 30.4193 10.1841 30.8859C10.4251 30.9064 10.6302 30.7167 10.6302 30.4757V27.3782C10.6302 27.1731 10.4764 26.9988 10.2713 26.9731C8.88665 26.7988 7.57896 26.1936 6.57383 25.2039C5.34306 23.9988 4.66614 22.3782 4.66614 20.6603C4.66614 19.2244 5.13281 17.8705 6.00973 16.7423C6.86614 15.6449 8.07127 14.85 9.39948 14.5013L11.3431 13.9885L12.0559 12.1064C12.4969 10.9372 13.1123 9.83978 13.8867 8.85003C14.6508 7.86542 15.5585 7.00388 16.5738 6.28593C18.6815 4.80388 21.1636 4.01926 23.7533 4.01926C26.3431 4.01926 28.8251 4.80388 30.9328 6.29106C31.9533 7.00901 32.8559 7.87055 33.62 8.85516C34.3943 9.84491 35.0097 10.9423 35.4508 12.1116L36.1585 13.9885L38.0969 14.5013C40.8764 15.2398 42.82 17.768 42.82 20.6552C42.82 22.3782 42.1431 23.9936 40.9123 25.1988C39.9123 26.1834 38.6097 26.7936 37.2251 26.968C37.02 26.9936 36.8713 27.168 36.8713 27.3731V30.4757C36.8713 30.7167 37.0815 30.9064 37.3226 30.8859C42.5379 30.4141 46.6815 26.0654 46.7174 20.7218C46.7482 15.9321 43.502 11.8962 39.0969 10.727Z" fill="#F19427"/>
</svg>
