<svg width="323" height="50" viewBox="0 0 323 50" fill="none" xmlns="http://www.w3.org/2000/svg">
<path d="M18.1155 1.67676C19.8326 1.67676 21.5496 2.53527 22.4081 3.39379C23.2666 4.25231 24.1251 5.96934 24.1251 7.68637V9.4034C24.1251 11.1204 23.2666 12.8375 22.4081 13.696C21.5496 14.5545 19.8326 15.413 18.1155 15.413H6.95481V20.5641C6.95481 20.5641 6.95481 21.4226 6.0963 21.4226H2.66223C2.66223 21.4226 1.80371 21.4226 1.80371 20.5641V2.53528C2.66223 1.67676 2.66223 1.67676 3.52074 1.67676H18.1155ZM6.95481 11.1204H17.257C18.1155 11.1204 18.974 11.1204 18.974 10.2619C18.974 10.2619 19.8326 9.40341 19.8326 8.54489V7.68637C19.8326 6.82786 19.8326 5.96934 18.974 5.96934C18.1155 5.96934 18.1155 5.11082 17.257 5.11082H6.95481V11.1204Z" fill="#F15B27"/>
<path d="M39.5782 1.67676C39.5782 1.67676 40.4367 1.67676 39.5782 1.67676L40.4367 9.4034H53.3145V2.53528C53.3145 2.53528 53.3145 1.67676 54.173 1.67676H56.7486C56.7486 1.67676 57.6071 1.67676 57.6071 2.53528V20.5641C57.6071 20.5641 57.6071 21.4226 56.7486 21.4226H53.3145C53.3145 21.4226 52.456 21.4226 52.456 20.5641V12.8375H40.4367V20.5641C40.4367 20.5641 40.4367 21.4226 39.5782 21.4226H36.1442C36.1442 21.4226 35.2856 21.4226 35.2856 20.5641V2.53528C35.2856 2.53528 35.2856 1.67676 36.1442 1.67676H39.5782Z" fill="#F15B27"/>
<path d="M82.5047 1.67676C83.3632 1.67676 84.2217 1.67676 84.2217 1.67676C84.2217 1.67676 85.0803 2.53527 85.9388 3.39379L95.3825 19.7056C95.3825 19.7056 95.3825 19.7056 95.3825 20.5641H91.9484H91.0899L89.3728 17.1301H75.6366L73.9195 20.5641C73.9195 20.5641 73.9195 20.5641 73.061 20.5641H69.627C69.627 20.5641 69.627 20.5641 69.627 19.7056L78.2121 3.39379C78.2121 2.53527 79.0706 2.53527 79.0706 1.67676C79.9292 1.67676 79.9292 1.67676 80.7877 1.67676H82.5047ZM77.3536 13.696H86.7973L82.5047 5.96934L77.3536 13.696Z" fill="#F15B27"/>
<path d="M121.996 1.67676C123.713 1.67676 125.43 2.53527 126.288 3.39379C127.147 4.25231 128.006 5.96934 128.006 7.68637V9.4034C128.006 11.1204 128.006 11.979 127.147 12.8375C126.288 13.696 125.43 14.5545 123.713 14.5545L128.006 20.5641C128.006 20.5641 128.006 20.5641 127.147 20.5641H123.713C123.713 20.5641 123.713 20.5641 122.854 20.5641C121.996 20.5641 122.854 20.5641 122.854 20.5641L118.562 14.5545H109.977V19.7056C109.977 19.7056 109.977 20.5641 109.118 20.5641H106.543C106.543 20.5641 105.684 20.5641 105.684 19.7056V2.53528C105.684 1.67676 105.684 1.67676 106.543 1.67676H121.996ZM110.835 11.1204H121.137C121.996 11.1204 122.854 11.1204 122.854 10.2619C122.854 9.40341 123.713 9.40341 123.713 8.54489V7.68637C123.713 6.82786 123.713 5.96934 122.854 5.96934C122.854 5.96934 121.996 5.11082 121.137 5.11082H110.835V11.1204Z" fill="#F15B27"/>
<path d="M146.034 1.67676C146.893 1.67676 146.893 1.67676 146.893 1.67676H147.751C147.751 1.67676 147.751 1.67676 148.61 2.53528C149.468 3.39379 148.61 3.39379 149.468 3.39379L155.478 16.2715L161.488 3.39379C161.488 2.53527 161.488 2.53528 162.346 2.53528C162.346 2.53528 162.346 1.67676 163.205 1.67676H164.063H164.922H167.497C168.356 1.67676 169.214 1.67676 169.214 2.53528C169.214 3.39379 170.073 3.39379 170.073 5.11082V20.5641C170.073 20.5641 170.073 21.4226 169.214 21.4226H166.639C166.639 21.4226 165.78 21.4226 165.78 20.5641V5.96934L160.629 17.9886C160.629 18.8471 159.771 18.8471 159.771 18.8471L158.912 19.7056C158.912 19.7056 158.053 19.7056 158.053 20.5641H157.195H155.478C154.619 20.5641 154.619 20.5641 154.619 20.5641C154.619 20.5641 153.761 20.5641 153.761 19.7056L152.902 18.8471L152.044 17.9886L146.893 5.96934V20.5641C146.893 20.5641 146.893 21.4226 146.034 21.4226H143.459C143.459 21.4226 142.6 21.4226 142.6 20.5641V4.25231C142.6 3.39379 142.6 2.53527 143.459 1.67676C141.742 1.67676 141.742 1.67676 143.459 1.67676H146.034Z" fill="#F15B27"/>
<path d="M186.384 1.67676C187.243 1.67676 187.243 1.67676 186.384 1.67676L187.243 20.5641C187.243 20.5641 187.243 21.4226 186.384 21.4226H183.809C183.809 21.4226 182.95 21.4226 182.95 20.5641V2.53528C182.95 2.53528 182.95 1.67676 183.809 1.67676H186.384Z" fill="#F15B27"/>
<path d="M219.009 1.67676C219.867 1.67676 219.867 1.67676 219.009 1.67676L219.867 5.11082C219.867 5.11082 219.867 5.96934 219.009 5.96934H205.272C204.414 5.96934 204.414 5.96934 204.414 5.96934V6.82786V7.68637C204.414 8.54489 205.272 9.4034 206.131 9.4034H215.575C217.292 9.4034 218.15 9.40341 219.009 10.2619C219.867 11.1204 219.867 11.979 219.867 13.696V16.2715C219.867 17.9886 219.867 18.8471 219.009 19.7056C218.15 20.5641 217.292 20.5641 215.575 20.5641H200.121C200.121 20.5641 199.263 20.5641 199.263 19.7056V17.9886C199.263 17.9886 199.263 17.1301 200.121 17.1301H214.716C215.575 17.1301 215.575 17.1301 215.575 17.1301V16.2715V14.5545C215.575 13.696 214.716 12.8375 213.857 12.8375H203.555C201.838 12.8375 200.98 12.8375 200.121 11.979C199.263 11.1204 199.263 10.2619 199.263 8.54489V5.96934C199.263 4.25231 199.263 3.39379 200.121 2.53528C201.838 1.67676 202.697 1.67676 204.414 1.67676H219.009Z" fill="#F15B27"/>
<path d="M236.178 1.67676C237.037 1.67676 237.037 1.67676 236.178 1.67676L237.037 20.5641C237.037 20.5641 237.037 21.4226 236.178 21.4226H233.603C233.603 21.4226 232.744 21.4226 232.744 20.5641V2.53528C232.744 1.67676 232.744 1.67676 233.603 1.67676H236.178Z" fill="#F15B27"/>
<path d="M266.227 1.67676C267.944 1.67676 268.803 1.67676 269.661 1.67676C270.52 1.67676 271.378 2.53528 272.237 2.53528C273.095 3.39379 273.095 4.2523 273.954 5.11082C273.954 5.96934 273.954 6.82786 273.954 8.54489V13.696C273.954 15.413 273.954 16.2715 273.954 17.1301C273.954 17.9886 273.095 18.8471 272.237 19.7056C271.378 20.5641 270.52 20.5641 269.661 20.5641C268.803 20.5641 267.086 20.5641 266.227 20.5641H257.642C255.925 20.5641 255.066 20.5641 254.208 20.5641C253.349 20.5641 252.491 19.7056 251.632 19.7056C250.774 19.7056 250.774 17.9886 249.915 17.1301C249.057 16.2715 249.915 15.413 249.915 13.696V8.54489C249.915 6.82786 249.915 5.96934 249.915 5.11082C249.915 4.2523 250.774 3.39379 251.632 2.53528C252.491 1.67676 253.349 1.67676 254.208 1.67676C255.066 1.67676 256.783 1.67676 257.642 1.67676H266.227ZM254.208 13.696C254.208 14.5545 254.208 15.413 254.208 15.413C254.208 16.2715 254.208 16.2715 255.066 16.2715L255.925 17.1301C256.783 17.1301 256.783 17.1301 257.642 17.1301H266.227C267.086 17.1301 267.944 17.1301 267.944 17.1301C268.803 17.1301 268.803 17.1301 268.803 16.2715L269.661 15.413C269.661 14.5545 269.661 14.5545 269.661 13.696V9.4034C269.661 8.54489 269.661 7.68637 269.661 7.68637C269.661 6.82786 269.661 6.82786 268.803 6.82786L267.944 5.96934C267.086 5.96934 267.086 5.96934 266.227 5.96934H257.642C256.783 5.96934 255.925 5.96934 255.925 5.96934C255.066 5.96934 255.066 5.96934 255.066 6.82786L254.208 7.68637C254.208 8.54489 254.208 8.54489 254.208 9.4034V13.696Z" fill="#F15B27"/>
<path d="M291.124 1.67688C291.982 1.67688 291.982 1.67688 291.982 1.67688H292.841C292.841 1.67688 293.699 1.67688 293.699 2.5354L294.558 3.39391L304.86 17.1302V2.5354C304.86 2.5354 304.86 1.67688 305.718 1.67688H308.294C310.011 1.67688 310.011 1.67688 310.011 2.5354V17.9887C310.011 18.8472 310.011 19.7057 309.153 20.5642C309.153 20.5642 308.294 21.4228 307.435 21.4228H304.86H304.001H303.143C303.143 21.4228 302.284 21.4228 302.284 20.5642L301.426 19.7057L291.124 5.96946V20.5642C291.124 20.5642 291.124 21.4228 290.265 21.4228H287.69C287.69 21.4228 286.831 21.4228 286.831 20.5642V4.25243C286.831 3.39391 286.831 2.53539 287.69 1.67688C287.69 1.67688 288.548 0.818359 289.407 0.818359H291.124V1.67688Z" fill="#F15B27"/>
<path d="M266.176 34.2857C265.972 34.2857 265.84 34.4057 265.78 34.6457L263.89 41.3597C263.626 42.2957 263.206 42.9857 262.63 43.4297C262.054 43.8617 261.298 44.0777 260.362 44.0777C259.81 44.0777 259.324 44.0057 258.904 43.8617C258.496 43.7297 258.148 43.5437 257.86 43.3037C257.572 43.0637 257.344 42.7757 257.176 42.4397C257.008 42.1037 256.894 41.7437 256.834 41.3597L255.322 32.2337C255.286 32.0057 255.268 31.8137 255.268 31.6577H258.706C258.706 31.7177 258.706 31.7897 258.706 31.8737C258.718 31.9577 258.73 32.0417 258.742 32.1257L260.02 40.4417C260.056 40.7177 260.2 40.8557 260.452 40.8557C260.56 40.8557 260.65 40.8317 260.722 40.7837C260.794 40.7237 260.848 40.6217 260.884 40.4777L262.738 33.9437C262.99 33.0677 263.38 32.4257 263.908 32.0177C264.436 31.5977 265.192 31.3877 266.176 31.3877C267.148 31.3877 267.886 31.5917 268.39 31.9997C268.894 32.4077 269.26 33.0257 269.488 33.8537L271.306 40.4777C271.342 40.6217 271.396 40.7237 271.468 40.7837C271.54 40.8317 271.63 40.8557 271.738 40.8557C271.978 40.8557 272.122 40.7177 272.17 40.4417L273.556 32.1257C273.58 32.0297 273.592 31.9457 273.592 31.8737C273.592 31.7897 273.592 31.7177 273.592 31.6577H276.994C276.994 31.7537 276.988 31.8437 276.976 31.9277C276.976 31.9997 276.964 32.1017 276.94 32.2337L275.32 41.3777C275.176 42.1817 274.816 42.8357 274.24 43.3397C273.676 43.8317 272.848 44.0777 271.756 44.0777C269.944 44.0777 268.798 43.1717 268.318 41.3597L266.572 34.6457C266.512 34.4057 266.38 34.2857 266.176 34.2857ZM287.086 44.0777C286.654 44.0777 286.252 43.9877 285.88 43.8077C285.508 43.6277 285.226 43.3457 285.034 42.9617L281.344 35.3117C281.308 35.2157 281.23 35.1677 281.11 35.1677C281.038 35.1677 280.972 35.1977 280.912 35.2577C280.852 35.3057 280.822 35.3837 280.822 35.4917V43.8257H277.69V34.9157C277.69 34.2317 277.786 33.6677 277.978 33.2237C278.182 32.7797 278.464 32.4137 278.824 32.1257C279.1 31.9097 279.412 31.7357 279.76 31.6037C280.12 31.4597 280.516 31.3877 280.948 31.3877C281.716 31.3877 282.34 31.5977 282.82 32.0177C283.312 32.4377 283.714 32.9837 284.026 33.6557L286.78 39.6317C286.84 39.7877 286.942 39.8657 287.086 39.8657C287.23 39.8657 287.332 39.7877 287.392 39.6317L290.146 33.6557C290.458 32.9837 290.854 32.4377 291.334 32.0177C291.814 31.5977 292.444 31.3877 293.224 31.3877C293.656 31.3877 294.046 31.4597 294.394 31.6037C294.754 31.7357 295.072 31.9097 295.348 32.1257C295.708 32.4137 295.984 32.7797 296.176 33.2237C296.38 33.6677 296.482 34.2317 296.482 34.9157V43.8257H293.35V35.4917C293.35 35.3837 293.32 35.3057 293.26 35.2577C293.2 35.1977 293.134 35.1677 293.062 35.1677C292.942 35.1677 292.864 35.2157 292.828 35.3117L289.138 42.9617C288.946 43.3457 288.664 43.6277 288.292 43.8077C287.92 43.9877 287.518 44.0777 287.086 44.0777ZM310.966 34.8797H302.218C302.014 34.8797 301.852 34.9037 301.732 34.9517C301.624 34.9877 301.534 35.0417 301.462 35.1137C301.294 35.2817 301.21 35.4917 301.21 35.7437C301.21 36.0077 301.312 36.2237 301.516 36.3917C301.588 36.4517 301.672 36.4997 301.768 36.5357C301.876 36.5597 302.026 36.5717 302.218 36.5717H307.564C308.248 36.5717 308.824 36.6737 309.292 36.8777C309.772 37.0697 310.174 37.3337 310.498 37.6697C310.822 38.0057 311.074 38.3897 311.254 38.8217C311.446 39.2537 311.542 39.7097 311.542 40.1897C311.542 40.6337 311.458 41.0597 311.29 41.4677C311.134 41.8757 310.918 42.2417 310.642 42.5657C310.306 42.9497 309.886 43.2557 309.382 43.4837C308.89 43.7117 308.284 43.8257 307.564 43.8257H298.132V40.7117H306.988C307.24 40.7117 307.432 40.6877 307.564 40.6397C307.708 40.5797 307.822 40.5017 307.906 40.4057C308.038 40.2497 308.104 40.0637 308.104 39.8477C308.104 39.5837 308.02 39.3677 307.852 39.1997C307.768 39.1037 307.66 39.0377 307.528 39.0017C307.408 38.9537 307.228 38.9297 306.988 38.9297H302.038C301.222 38.9297 300.562 38.8337 300.058 38.6417C299.566 38.4377 299.158 38.1677 298.834 37.8317C298.51 37.4957 298.258 37.1177 298.078 36.6977C297.898 36.2657 297.808 35.7977 297.808 35.2937C297.808 34.8017 297.898 34.3397 298.078 33.9077C298.27 33.4757 298.528 33.0917 298.852 32.7557C299.176 32.4197 299.584 32.1557 300.076 31.9637C300.568 31.7597 301.222 31.6577 302.038 31.6577H310.966V34.8797Z" fill="#7B7B7B"/>
<rect x="0.271973" y="32.4238" width="244.204" height="11.8411" fill="#EDEDED"/>
</svg>
