<svg width="118" height="31" viewBox="0 0 118 31" fill="none" xmlns="http://www.w3.org/2000/svg">
<path d="M6.19565 23.1318C6.84783 23.1318 7.5 23.4579 7.82609 23.784C8.15218 24.1101 8.47826 24.7623 8.47826 25.4144V26.0666C8.47826 26.7188 8.15218 27.371 7.82609 27.6971C7.5 28.0231 6.84783 28.3492 6.19565 28.3492H1.95652V30.3057C1.95652 30.3057 1.95652 30.6318 1.63044 30.6318H0.326087C0.326087 30.6318 0 30.6318 0 30.3057V23.4579C0.326087 23.1318 0.326087 23.1318 0.652174 23.1318H6.19565ZM1.95652 26.7188H5.86957C6.19565 26.7188 6.52174 26.7188 6.52174 26.3927C6.52174 26.3927 6.84783 26.0666 6.84783 25.7405V25.4144C6.84783 25.0884 6.84783 24.7623 6.52174 24.7623C6.19565 24.7623 6.19565 24.4362 5.86957 24.4362H1.95652V26.7188Z" fill="#F2A28A"/>
<path d="M14.3477 23.1318C14.3477 23.1318 14.6738 23.1318 14.3477 23.1318L14.6738 26.0666H19.5651V23.4579C19.5651 23.4579 19.5651 23.1318 19.8912 23.1318H20.8695C20.8695 23.1318 21.1955 23.1318 21.1955 23.4579V30.3057C21.1955 30.3057 21.1955 30.6318 20.8695 30.6318H19.5651C19.5651 30.6318 19.239 30.6318 19.239 30.3057V27.371H14.6738V30.3057C14.6738 30.3057 14.6738 30.6318 14.3477 30.6318H13.0434C13.0434 30.6318 12.7173 30.6318 12.7173 30.3057V23.4579C12.7173 23.4579 12.7173 23.1318 13.0434 23.1318H14.3477Z" fill="#F2A28A"/>
<path d="M30.652 23.1318C30.9781 23.1318 31.3042 23.1318 31.3042 23.1318C31.3042 23.1318 31.6303 23.4579 31.9564 23.784L35.5434 29.9797C35.5434 29.9797 35.5434 29.9797 35.5434 30.3057H34.239H33.9129L33.2607 29.0014H28.0434L27.3912 30.3057C27.3912 30.3057 27.3912 30.3057 27.0651 30.3057H25.7607C25.7607 30.3057 25.7607 30.3057 25.7607 29.9797L29.0216 23.784C29.0216 23.4579 29.3477 23.4579 29.3477 23.1318C29.6738 23.1318 29.6738 23.1318 29.9999 23.1318H30.652ZM28.6955 27.6971H32.2825L30.652 24.7623L28.6955 27.6971Z" fill="#F2A28A"/>
<path d="M45.6522 23.1318C46.3044 23.1318 46.9565 23.4579 47.2826 23.784C47.6087 24.1101 47.9348 24.7623 47.9348 25.4144V26.0666C47.9348 26.7188 47.9348 27.0449 47.6087 27.371C47.2826 27.6971 46.9565 28.0231 46.3044 28.0231L47.9348 30.3057C47.9348 30.3057 47.9348 30.3057 47.6087 30.3057H46.3044C46.3044 30.3057 46.3044 30.3057 45.9783 30.3057C45.6522 30.3057 45.9783 30.3057 45.9783 30.3057L44.3478 28.0231H41.087V29.9797C41.087 29.9797 41.087 30.3057 40.7609 30.3057H39.7826C39.7826 30.3057 39.4565 30.3057 39.4565 29.9797V23.4579C39.4565 23.1318 39.4565 23.1318 39.7826 23.1318H45.6522ZM41.4131 26.7188H45.3261C45.6522 26.7188 45.9783 26.7188 45.9783 26.3927C45.9783 26.0666 46.3044 26.0666 46.3044 25.7405V25.4144C46.3044 25.0884 46.3044 24.7623 45.9783 24.7623C45.9783 24.7623 45.6522 24.4362 45.3261 24.4362H41.4131V26.7188Z" fill="#F2A28A"/>
<path d="M54.7823 23.1318C55.1084 23.1318 55.1084 23.1318 55.1084 23.1318H55.4345C55.4345 23.1318 55.4345 23.1318 55.7606 23.4579C56.0867 23.784 55.7606 23.784 56.0867 23.784L58.3693 28.6753L60.6519 23.784C60.6519 23.4579 60.6519 23.4579 60.978 23.4579C60.978 23.4579 60.978 23.1318 61.3041 23.1318H61.6302H61.9563H62.9345C63.2606 23.1318 63.5867 23.1318 63.5867 23.4579C63.5867 23.784 63.9128 23.784 63.9128 24.4362V30.3057C63.9128 30.3057 63.9128 30.6318 63.5867 30.6318H62.6084C62.6084 30.6318 62.2823 30.6318 62.2823 30.3057V24.7623L60.3258 29.3275C60.3258 29.6536 59.9997 29.6536 59.9997 29.6536L59.6736 29.9797C59.6736 29.9797 59.3476 29.9797 59.3476 30.3057H59.0215H58.3693C58.0432 30.3057 58.0432 30.3057 58.0432 30.3057C58.0432 30.3057 57.7171 30.3058 57.7171 29.9797L57.391 29.6536L57.0649 29.3275L55.1084 24.7623V30.3057C55.1084 30.3057 55.1084 30.6318 54.7823 30.6318H53.8041C53.8041 30.6318 53.478 30.6318 53.478 30.3057V24.1101C53.478 23.784 53.478 23.4579 53.8041 23.1318C53.1519 23.1318 53.1519 23.1318 53.8041 23.1318H54.7823Z" fill="#F2A28A"/>
<path d="M70.1085 23.1318C70.4346 23.1318 70.4346 23.1318 70.1085 23.1318L70.4346 30.3057C70.4346 30.3057 70.4346 30.6318 70.1085 30.6318H69.1303C69.1303 30.6318 68.8042 30.6318 68.8042 30.3057V23.4579C68.8042 23.4579 68.8042 23.1318 69.1303 23.1318H70.1085Z" fill="#F2A28A"/>
<path d="M82.5 23.1318C82.8261 23.1318 82.8261 23.1318 82.5 23.1318L82.8261 24.4362C82.8261 24.4362 82.8261 24.7623 82.5 24.7623H77.2826C76.9565 24.7623 76.9565 24.7623 76.9565 24.7623V25.0884V25.4144C76.9565 25.7405 77.2826 26.0666 77.6087 26.0666H81.1957C81.8478 26.0666 82.1739 26.0666 82.5 26.3927C82.8261 26.7188 82.8261 27.0449 82.8261 27.6971V28.6753C82.8261 29.3275 82.8261 29.6536 82.5 29.9797C82.1739 30.3057 81.8478 30.3057 81.1957 30.3057H75.3261C75.3261 30.3057 75 30.3057 75 29.9797V29.3275C75 29.3275 75 29.0014 75.3261 29.0014H80.8696C81.1957 29.0014 81.1957 29.0014 81.1957 29.0014V28.6753V28.0231C81.1957 27.6971 80.8696 27.371 80.5435 27.371H76.6304C75.9783 27.371 75.6522 27.371 75.3261 27.0449C75 26.7188 75 26.3927 75 25.7405V24.7623C75 24.1101 75 23.784 75.3261 23.4579C75.9783 23.1318 76.3044 23.1318 76.9565 23.1318H82.5Z" fill="#F2A28A"/>
<path d="M89.0216 23.1318C89.3477 23.1318 89.3477 23.1318 89.0216 23.1318L89.3477 30.3057C89.3477 30.3057 89.3477 30.6318 89.0216 30.6318H88.0434C88.0434 30.6318 87.7173 30.6318 87.7173 30.3057V23.4579C87.7173 23.1318 87.7173 23.1318 88.0434 23.1318H89.0216Z" fill="#F2A28A"/>
<path d="M100.435 23.1318C101.087 23.1318 101.413 23.1318 101.739 23.1318C102.065 23.1318 102.391 23.4579 102.717 23.4579C103.044 23.784 103.044 24.1101 103.37 24.4362C103.37 24.7623 103.37 25.0884 103.37 25.7405V27.6971C103.37 28.3492 103.37 28.6753 103.37 29.0014C103.37 29.3275 103.044 29.6536 102.717 29.9797C102.391 30.3057 102.065 30.3057 101.739 30.3057C101.413 30.3057 100.761 30.3057 100.435 30.3057H97.1739C96.5218 30.3057 96.1957 30.3057 95.8696 30.3057C95.5435 30.3057 95.2174 29.9797 94.8913 29.9797C94.5653 29.9797 94.5653 29.3275 94.2392 29.0014C93.9131 28.6753 94.2392 28.3492 94.2392 27.6971V25.7405C94.2392 25.0884 94.2392 24.7623 94.2392 24.4362C94.2392 24.1101 94.5653 23.784 94.8913 23.4579C95.2174 23.1318 95.5435 23.1318 95.8696 23.1318C96.1957 23.1318 96.8479 23.1318 97.1739 23.1318H100.435ZM95.8696 27.6971C95.8696 28.0231 95.8696 28.3492 95.8696 28.3492C95.8696 28.6753 95.8696 28.6753 96.1957 28.6753L96.5218 29.0014C96.8479 29.0014 96.8479 29.0014 97.1739 29.0014H100.435C100.761 29.0014 101.087 29.0014 101.087 29.0014C101.413 29.0014 101.413 29.0014 101.413 28.6753L101.739 28.3492C101.739 28.0231 101.739 28.0231 101.739 27.6971V26.0666C101.739 25.7405 101.739 25.4144 101.739 25.4144C101.739 25.0884 101.739 25.0884 101.413 25.0884L101.087 24.7623C100.761 24.7623 100.761 24.7623 100.435 24.7623H97.1739C96.8479 24.7623 96.5218 24.7623 96.5218 24.7623C96.1957 24.7623 96.1957 24.7623 96.1957 25.0884L95.8696 25.4144C95.8696 25.7405 95.8696 25.7405 95.8696 26.0666V27.6971Z" fill="#F2A28A"/>
<path d="M109.891 23.1318C110.217 23.1318 110.217 23.1318 110.217 23.1318H110.543C110.543 23.1318 110.869 23.1318 110.869 23.4578L111.196 23.7839L115.109 29.0013V23.4578C115.109 23.4578 115.109 23.1318 115.435 23.1318H116.413C117.065 23.1318 117.065 23.1318 117.065 23.4578V29.3274C117.065 29.6535 117.065 29.9796 116.739 30.3057C116.739 30.3057 116.413 30.6318 116.087 30.6318H115.109H114.782H114.456C114.456 30.6318 114.13 30.6317 114.13 30.3057L113.804 29.9796L109.891 24.7622V30.3057C109.891 30.3057 109.891 30.6318 109.565 30.6318H108.587C108.587 30.6318 108.261 30.6317 108.261 30.3057V24.11C108.261 23.7839 108.261 23.4578 108.587 23.1318C108.587 23.1318 108.913 22.8057 109.239 22.8057H109.891V23.1318Z" fill="#F2A28A"/>
<path d="M0.325684 17.9143V5.52295H15.9779C17.2822 5.52295 18.2605 5.84904 18.9126 6.50121C19.5648 7.15338 19.8909 8.13165 19.8909 9.10991V17.5882H16.63V9.76208C16.63 8.78382 15.9779 8.45773 14.9996 8.45773H11.7387V17.9143H8.47786V8.13165H3.58655V17.5882H0.325684V17.9143Z" fill="#F15B27"/>
<path d="M43.043 17.9144V0.631836H46.6299V17.5884H43.043V17.9144ZM43.6951 17.9144V14.9797H51.8473C52.8256 14.9797 53.8038 14.6536 54.1299 14.0014C54.7821 13.6753 55.1082 12.6971 55.1082 11.7188C55.1082 10.4144 54.7821 9.76227 54.1299 9.1101C53.4778 8.45792 52.8256 8.13184 51.8473 8.13184H43.6951V5.52314H51.8473C54.1299 5.52314 55.7604 6.17531 56.7386 7.15357C58.043 8.13184 58.3691 9.76227 58.3691 11.7188C58.3691 13.6753 57.7169 15.3057 56.7386 16.284C55.4343 17.2623 53.8038 17.9144 51.8473 17.9144H43.6951Z" fill="#F15B27"/>
<path d="M64.2383 0.958008H60.6514V3.5667H64.2383V0.958008Z" fill="#F15B27"/>
<path d="M64.2383 5.52295H60.6514V17.9143H64.2383V5.52295Z" fill="#F15B27"/>
<path d="M71.0865 17.9143L65.8691 5.52295H69.4561L73.3691 14.9795H74.6735L78.5865 5.52295H82.1735L76.9561 17.9143H71.0865Z" fill="#F15B27"/>
<path d="M87.7168 17.9143C86.4124 17.9143 85.4341 17.5882 84.782 16.936C84.1298 16.2838 83.8037 15.3056 83.8037 14.3273V5.52295H87.3907V13.6751C87.3907 14.6534 87.7168 14.9795 88.695 14.9795H93.5863C94.5646 14.9795 94.8907 14.6534 94.8907 13.6751V5.52295H98.4776V14.0012C98.4776 14.9795 98.1515 15.9577 97.4994 16.6099C96.8472 17.2621 95.8689 17.5882 94.5646 17.5882H87.7168V17.9143Z" fill="#F15B27"/>
<path d="M107.282 17.9143C105 17.9143 103.369 17.2621 102.391 16.2838C101.087 15.3056 100.761 13.6751 100.761 11.7186C100.761 9.76208 101.413 8.13164 102.391 7.15338C103.696 6.17512 105.326 5.52295 107.282 5.52295H113.152C114.456 5.52295 115.761 5.84904 116.413 6.50121C117.065 7.15338 117.391 8.13165 117.391 9.43599C117.391 12.0447 116.087 13.349 113.152 13.349H104.022C104.348 14.9795 105.326 15.6316 106.956 15.6316H116.739V18.2403H107.282V17.9143ZM107.282 8.13165C105.652 8.13165 104.674 8.78382 104.348 10.0882H113.152C113.478 10.4143 113.804 10.0882 113.804 10.0882C114.13 9.76208 114.13 9.76208 114.13 9.43599C114.13 8.78382 113.804 8.45773 113.152 8.45773H107.282V8.13165Z" fill="#F15B27"/>
<path d="M34.2391 9.76216V5.84912H26.413L22.5 9.76216V14.0013L26.413 17.5883V13.6752V9.76216H34.2391Z" fill="#F15B27"/>
<path d="M29.6733 13.6752V17.5883H37.1733L41.4125 13.6752V9.43608L37.4994 5.84912L37.1733 9.76216V13.6752H29.6733Z" fill="#F15B27"/>
</svg>
