<svg width="31" height="30" viewBox="0 0 31 30" fill="none" xmlns="http://www.w3.org/2000/svg">
<path d="M26.4713 22.4589C26.4825 22.9556 26.3944 23.4494 26.2122 23.9116C26.0299 24.3737 25.7572 24.7947 25.4099 25.15C25.0627 25.5052 24.648 25.7875 24.1902 25.9803C23.7324 26.1731 23.2407 26.2724 22.7439 26.2726C22.2471 26.2727 21.7554 26.1736 21.2974 25.981C20.8395 25.7885 20.4247 25.5064 20.0773 25.1513C19.7299 24.7962 19.4569 24.3753 19.2744 23.9133C19.0919 23.4513 19.0036 22.9574 19.0146 22.4608C19.0361 21.4864 19.4383 20.5592 20.1349 19.8776C20.8316 19.196 21.7674 18.8142 22.742 18.814C23.7167 18.8137 24.6527 19.195 25.3497 19.8763C26.0467 20.5575 26.4493 21.4846 26.4713 22.4589Z" fill="#ED823A"/>
<path d="M22.1826 29.9174C20.6909 29.9174 19.1991 29.5444 17.8939 28.6121L6.33308 22.4588C5.40076 21.7129 4.6549 21.34 3.90904 20.5941C1.67146 18.3565 0.366211 15.1866 0.366211 12.0167C0.366211 8.84685 1.67146 5.86341 3.90904 3.62584C6.14662 1.38826 9.13005 0.0830078 12.2999 0.0830078C15.4698 0.0830078 18.4533 1.38826 20.8773 3.62584C21.6232 4.3717 21.9961 4.93109 22.742 5.86341L29.2682 17.7972C31.1329 20.9671 30.5735 24.8828 27.963 27.4933C26.2848 29.1715 24.4202 29.9174 22.1826 29.9174ZM12.2999 1.94765C9.68944 1.94765 7.07894 3.06644 5.21429 4.93109C3.34965 6.79574 2.23086 9.40624 2.23086 12.0167C2.23086 14.8137 3.34965 17.2378 5.21429 19.1024C5.77369 19.6618 6.33308 20.0347 7.2654 20.5941L19.0127 26.9339C20.1315 27.6798 21.2503 27.8662 22.369 27.8662C24.0472 27.8662 25.5389 27.3068 26.6577 26.0016C28.7088 23.9505 29.0818 20.9671 27.5901 18.543L21.0638 6.60927C20.5044 5.86341 20.1315 5.30402 19.5721 4.74462C17.521 3.06644 15.0969 1.94765 12.2999 1.94765Z" fill="#ED823A"/>
<path d="M20.8775 13.1357V11.2711L18.267 10.3388C18.0806 9.96583 18.0806 9.77937 17.8941 9.40644L19.0129 6.9824L17.7076 5.67715L15.2836 6.79593C14.9107 6.60947 14.7242 6.60947 14.3513 6.42301L13.4189 3.8125H11.5543L10.622 6.42301C10.249 6.60947 10.0626 6.60947 9.68964 6.79593L7.2656 5.67715L5.96035 6.9824L7.07914 9.40644C6.89267 9.77937 6.89267 9.96583 6.70621 10.3388L4.0957 11.2711V13.1357L6.70621 14.0681C6.89267 14.441 6.89267 14.6275 7.07914 15.0004L5.96035 17.4244L7.2656 18.7297L9.68964 17.6109C10.0626 17.7973 10.249 17.9838 10.622 17.9838L11.5543 20.5943H13.4189L14.3513 17.9838C14.7242 17.7974 14.9107 17.7973 15.2836 17.6109L17.7076 18.7297L19.0129 17.4244L17.8941 15.0004C18.0806 14.6275 18.267 14.441 18.267 14.0681L20.8775 13.1357ZM12.4866 15.0004C10.9949 15.0004 9.68964 13.6951 9.68964 12.2034C9.68964 10.7117 10.9949 9.40644 12.4866 9.40644C13.9783 9.40644 15.2836 10.7117 15.2836 12.2034C15.2836 13.6951 13.9783 15.0004 12.4866 15.0004Z" fill="#ED823A"/>
</svg>
