<svg width="31" height="36" viewBox="0 0 31 36" fill="none" xmlns="http://www.w3.org/2000/svg">
<path d="M15.3652 17.2676C14.0795 17.2676 13.2224 18.1248 13.2224 19.4105C13.2224 20.2676 13.8652 20.9105 14.5081 21.1248L13.8652 24.1248H16.6509L16.0081 21.1248C16.8652 20.9105 17.2938 20.2676 17.2938 19.4105C17.5081 18.1248 16.6509 17.2676 15.3652 17.2676ZM15.5795 8.05336C14.0795 8.05336 12.5795 9.12479 12.5795 10.6248V13.8391H18.3652V10.6248C18.1509 9.12479 17.0795 8.05336 15.5795 8.05336ZM15.3652 0.981934L0.365234 7.4105V13.8391C0.57952 23.2676 6.57952 31.6248 15.3652 35.0534C24.1509 31.6248 30.1509 23.2676 30.3652 13.8391V7.4105L15.3652 0.981934ZM23.9367 24.5534C23.9367 25.8391 23.0795 26.6962 21.7938 26.6962H8.93666C7.65095 26.6962 6.79381 25.8391 6.79381 24.5534V15.9819C6.79381 14.6962 7.65095 13.8391 8.93666 13.8391H9.57952V10.6248C9.79381 7.62479 12.3652 5.26765 15.3652 5.26765C18.3652 5.26765 20.9367 7.62479 21.1509 10.6248V13.8391H21.7938C23.0795 13.8391 23.9367 14.6962 23.9367 15.9819V24.5534Z" fill="#ED823A"/>
</svg>
