<svg width="31" height="31" viewBox="0 0 31 31" fill="none" xmlns="http://www.w3.org/2000/svg">
<path d="M19.1875 15.3651V13.2223H26.8707L24.4139 10.7655L25.9289 9.25049L30.9732 14.2937L25.9289 19.3369L24.4139 17.8219L26.8707 15.3651H19.1875Z" fill="#ED823A"/>
<path d="M17.0453 11.0795H14.9024V4.46666L12.4457 6.92345L10.9307 5.40845L15.9739 0.365234L21.0171 5.40845L19.5021 6.92345L17.0453 4.46666V11.0795Z" fill="#ED823A"/>
<path d="M17.0451 19.7591V17.508C17.0436 16.3718 16.5917 15.2825 15.7882 14.4791C14.9848 13.6757 13.8956 13.2237 12.7593 13.2223H5.07506L7.53185 10.7655L6.01685 9.25049L0.973633 14.2937L6.01685 19.3369L7.53185 17.8219L5.07506 15.3651H12.7593C13.3275 15.3657 13.8722 15.5916 14.2739 15.9934C14.6757 16.3951 14.9016 16.9398 14.9022 17.508V19.7591C13.6014 20.0246 12.4456 20.7636 11.6588 21.8329C10.8719 22.9022 10.5102 24.2255 10.6436 25.5464C10.7771 26.8673 11.3962 28.0915 12.381 28.9818C13.3658 29.8722 14.646 30.3651 15.9736 30.3651C17.3012 30.3651 18.5815 29.8722 19.5663 28.9818C20.5511 28.0915 21.1702 26.8673 21.3036 25.5464C21.4371 24.2255 21.0753 22.9022 20.2885 21.8329C19.5017 20.7636 18.3458 20.0246 17.0451 19.7591ZM15.9736 28.2223C15.3379 28.2223 14.7165 28.0338 14.1879 27.6806C13.6593 27.3274 13.2473 26.8254 13.004 26.238C12.7607 25.6507 12.6971 25.0044 12.8211 24.3809C12.9451 23.7574 13.2513 23.1847 13.7008 22.7351C14.1503 22.2856 14.723 21.9795 15.3466 21.8555C15.9701 21.7314 16.6164 21.7951 17.2037 22.0384C17.791 22.2817 18.293 22.6936 18.6462 23.2222C18.9994 23.7508 19.1879 24.3723 19.1879 25.008C19.1871 25.8602 18.8481 26.6773 18.2455 27.2799C17.6429 27.8825 16.8259 28.2214 15.9736 28.2223Z" fill="#ED823A"/>
</svg>
