<svg width="31" height="24" viewBox="0 0 31 24" fill="none" xmlns="http://www.w3.org/2000/svg">
<path d="M22.4022 9.75684H9.5452C9.39788 9.75684 9.27734 9.87737 9.27734 10.0247V23.4844C9.27734 23.6317 9.39788 23.7523 9.5452 23.7523H22.4022C22.5496 23.7523 22.6701 23.6317 22.6701 23.4844V10.0247C22.6701 9.87737 22.5496 9.75684 22.4022 9.75684ZM11.4202 11.8997H20.5273V15.8171H11.4202V11.8997ZM20.5273 21.6094H11.4202V17.692H20.5273V21.6094Z" fill="#ED823A"/>
<path d="M25.9981 7.17496C24.4646 3.127 20.5573 0.247559 15.9803 0.247559C11.4033 0.247559 7.496 3.12365 5.96253 7.17161C3.07974 7.93165 0.95699 10.5667 0.973731 13.6939C0.99382 17.1894 3.70585 20.032 7.121 20.3367C7.27837 20.3501 7.4123 20.2262 7.4123 20.0688V18.0465C7.4123 17.9126 7.31185 17.7988 7.17792 17.782C6.27391 17.6682 5.42012 17.2731 4.76388 16.6269C3.96031 15.8401 3.51835 14.782 3.51835 13.6604C3.51835 12.7229 3.82304 11.839 4.39558 11.1024C4.95473 10.3859 5.74155 9.8669 6.60873 9.63922L7.87769 9.30441L8.34309 8.07562C8.63104 7.31223 9.03282 6.59572 9.53839 5.94952C10.0373 5.30667 10.6299 4.74417 11.2928 4.27543C12.669 3.3078 14.2895 2.79553 15.9803 2.79553C17.6711 2.79553 19.2917 3.3078 20.6678 4.27878C21.3341 4.74752 21.9233 5.31002 22.4222 5.95287C22.9278 6.59907 23.3296 7.31558 23.6175 8.07897L24.0796 9.30441L25.3452 9.63922C27.1599 10.1214 28.4289 11.772 28.4289 13.657C28.4289 14.782 27.9869 15.8367 27.1833 16.6235C26.5304 17.2664 25.68 17.6648 24.776 17.7787C24.6421 17.7954 24.545 17.9092 24.545 18.0432V20.0688C24.545 20.2262 24.6822 20.3501 24.8396 20.3367C28.2447 20.0287 30.9501 17.1894 30.9735 13.7006C30.9936 10.5734 28.8742 7.93834 25.9981 7.17496Z" fill="#ED823A"/>
</svg>
