<svg width="31" height="31" viewBox="0 0 31 31" fill="none" xmlns="http://www.w3.org/2000/svg">
<path d="M0.973633 1.93799C0.973633 1.60647 1.10533 1.28853 1.33975 1.0541C1.57417 0.819684 1.89211 0.687988 2.22363 0.687988C2.55515 0.687988 2.8731 0.819684 3.10752 1.0541C3.34194 1.28853 3.47363 1.60647 3.47363 1.93799V28.188H29.7236C30.0552 28.188 30.3731 28.3197 30.6075 28.5541C30.8419 28.7885 30.9736 29.1065 30.9736 29.438C30.9736 29.7695 30.8419 30.0875 30.6075 30.3219C30.3731 30.5563 30.0552 30.688 29.7236 30.688H2.22363C1.89211 30.688 1.57417 30.5563 1.33975 30.3219C1.10533 30.0875 0.973633 29.7695 0.973633 29.438V1.93799Z" fill="#ED823A"/>
<path d="M28.474 6.93799C28.474 6.70585 28.4093 6.47829 28.2873 6.28082C28.1652 6.08335 27.9906 5.92377 27.783 5.81996C27.5753 5.71614 27.3429 5.67219 27.1117 5.69304C26.8805 5.71389 26.6597 5.79871 26.474 5.93799L17.1406 12.938L10.774 9.19466C10.5945 9.089 10.3915 9.02985 10.1834 9.02257C9.9753 9.0153 9.76867 9.06013 9.58229 9.15299L5.14062 11.373V26.5213H28.474V6.93799Z" fill="#ED823A"/>
</svg>
