<svg width="25" height="20" viewBox="0 0 25 20" fill="none" xmlns="http://www.w3.org/2000/svg">
<path d="M24.611 2.36768C23.6895 2.77591 22.7121 3.04374 21.7112 3.16224C22.7654 2.53145 23.5543 1.53887 23.9309 0.369473C22.94 0.957734 21.8556 1.37197 20.7249 1.59422C20.2524 1.09033 19.6816 0.688831 19.0476 0.414601C18.4137 0.140372 17.7302 -0.000742813 17.0394 2.94046e-06C14.2511 2.94046e-06 11.9902 2.26029 11.9902 5.04922C11.9902 5.44458 12.035 5.83035 12.1213 6.20014C7.92476 5.98952 4.20449 3.97916 1.71408 0.923999C1.26504 1.6946 1.02909 2.57079 1.03043 3.46267C1.02976 4.29398 1.23446 5.11259 1.62633 5.84574C2.01819 6.5789 2.58509 7.20391 3.27665 7.66524C2.47497 7.63977 1.69096 7.42325 0.989836 7.03369C0.989197 7.05478 0.989197 7.07555 0.989197 7.09729C0.989197 9.54295 2.72948 11.5837 5.03899 12.0481C4.29534 12.2494 3.51563 12.2789 2.75888 12.1344C3.4013 14.1399 5.26591 15.6002 7.47539 15.6411C5.68682 17.0447 3.47817 17.8061 1.20461 17.8027C0.79711 17.8027 0.395359 17.779 0 17.732C2.30866 19.2154 4.99557 20.0027 7.73971 20C17.027 20 22.1056 12.3066 22.1056 5.63507C22.1056 5.41645 22.1005 5.19816 22.0909 4.98114C23.0799 4.2671 23.9334 3.38203 24.611 2.36768Z" fill="white"/>
</svg>
