<svg width="1920" height="466" viewBox="0 0 1920 466" fill="none" xmlns="http://www.w3.org/2000/svg">
<path fill-rule="evenodd" clip-rule="evenodd" d="M865.14 439H1924V464H836.732C836.121 464.203 835.533 464.385 834.979 464.539C830.49 465.792 816.442 465.938 707.779 465.866C592.92 465.789 575.824 465.689 571.207 464.185C566.004 462.491 561.177 460.388 558.314 458.569C555.433 456.74 545.321 446.086 545.321 444.882C545.321 444.264 544.818 443.228 544.203 442.579C543.589 441.931 542.283 439.19 541.302 436.49C539.551 431.669 539.519 429.309 539.519 304.741C539.519 213.503 539.795 177.549 540.505 176.648C541.048 175.959 541.929 174.095 542.464 172.505C542.792 171.527 543.389 170.325 544.169 169H-7V149H566.278C569.201 147.956 572.911 147.005 576.563 146.426C580.386 145.82 645.446 145.504 748.969 145.499L881.211 145.493C890.408 145.493 895.029 134.387 888.547 127.863C868.291 107.477 866.742 105.037 869.487 97.8486C872.359 90.3291 878.349 86.8353 886.311 88.0386C889.745 88.5572 892.3 90.8719 921.54 119.946C940.609 138.906 953.572 152.484 954.344 154.304C955.973 158.14 955.969 162.314 954.335 166.137C952.778 169.783 893.108 229.465 888.942 231.544C885.211 233.406 880.602 233.354 877.002 231.408C872.583 229.019 871.165 227.326 869.572 222.528C867.04 214.902 868.188 213.091 888.219 193.11C897.797 183.556 905.634 175.362 905.634 174.902C905.634 174.384 845.225 174.149 746.969 174.284L583.378 174.497C580.386 174.5 577.46 175.37 574.951 177C572.296 178.725 570.57 180.75 569.372 183.546C567.682 187.487 567.637 190.713 567.637 305.685C567.637 411.113 567.787 424.136 569.042 427.139C570.574 430.807 572.03 432.538 575.583 434.922C577.76 436.383 594.841 436.478 708.535 436.484C827.16 436.49 829.72 436.454 832.618 434.744C834.246 433.784 836.378 431.674 837.356 430.058C839.023 427.3 839.162 425.039 839.589 393.644C839.891 371.443 840.387 359.418 841.061 357.938C843.054 353.565 847.212 350.574 851.931 350.121C856.428 349.689 862.788 351.171 862.788 352.652C862.788 353.105 863.291 353.485 863.904 353.498C864.518 353.509 865.723 354.932 866.582 356.658C867.992 359.493 868.141 363.24 868.114 395.242L868.114 395.574C868.09 424.735 868.084 431.907 865.558 438.041C865.426 438.362 865.286 438.681 865.14 439ZM716.122 376.192C716.835 375.48 717.76 374.898 718.181 374.898C719.107 374.898 723.537 365.741 723.537 363.826C723.537 359.814 719.274 354.451 703.067 338.077C696.599 331.543 701.228 320.448 710.422 320.448H842.453C956.418 320.448 1001.18 320.166 1006.22 319.417C1012.54 318.477 1015.99 317.274 1022.71 313.67C1028.44 310.594 1037.61 299.68 1039.71 293.435C1040.24 291.845 1041.12 289.981 1041.67 289.291C1042.38 288.391 1042.65 252.437 1042.65 161.199C1042.65 36.6311 1042.62 34.2709 1040.87 29.4498C1039.89 26.7496 1038.58 24.0093 1037.97 23.3612C1037.35 22.7123 1036.85 21.6741 1036.85 21.0546C1036.85 19.8192 1026.74 9.13715 1023.9 7.37064C1020.77 5.42825 1016.02 3.40732 1010.52 1.68454C1005.39 0.0769348 1000.07 0.00631714 883.456 9.15527e-05C775.229 -0.00616455 761.19 0.149231 756.702 1.40338C750.779 3.0592 743.074 6.71002 740.56 9.05228C739.585 9.96097 738.569 10.7046 738.303 10.7046C737.459 10.7046 734.249 14.2376 734.249 15.1677C734.249 15.6586 733.877 16.0603 733.422 16.0603C732.27 16.0603 727.02 25.4071 725.148 30.7888C723.775 34.736 723.593 39.383 723.572 70.9572C723.571 72.1487 723.571 73.3024 723.57 74.4199C723.548 102.287 723.544 107.535 726.104 110.727C726.698 111.467 727.43 112.097 728.332 112.872C728.488 113.007 728.649 113.145 728.816 113.289C732.753 116.705 741.77 116.905 746.2 113.675C751.47 109.832 751.614 108.818 752.102 72.2962C752.52 40.8907 752.658 38.6404 754.325 35.8821C755.304 34.2656 757.435 32.1562 759.063 31.1958C761.962 29.4855 764.522 29.4499 883.146 29.4561C996.864 29.4615 1004.41 29.5569 1006.53 31.0182C1010.68 33.88 1012.75 36.0821 1012.75 37.629C1012.75 38.4734 1013.15 39.4116 1013.64 39.7151C1014.23 40.0784 1014.54 80.9092 1014.54 159.306C1014.54 275.218 1014.49 278.452 1012.8 282.394C1011.6 285.19 1009.88 287.215 1007.22 288.94C1004.71 290.57 1001.79 291.44 998.794 291.444L844.712 291.659C757.446 291.781 686.047 291.647 686.047 291.361C686.047 291.076 693.853 283.027 703.393 273.476C718.349 258.501 720.942 255.498 722.211 251.678C723.596 247.506 723.588 246.999 722.075 243.036C720.297 238.381 718.964 236.848 714.679 234.532C711.079 232.586 706.47 232.533 702.739 234.395C698.573 236.474 638.903 296.157 637.346 299.803C635.712 303.626 635.709 307.8 637.337 311.636C639.084 315.754 700.909 377.268 703.9 377.865C707.5 378.581 714.721 377.594 716.122 376.192Z" fill="url(#paint0_linear)"/>
<defs>
<linearGradient id="paint0_linear" x1="1215" y1="170" x2="771" y2="376" gradientUnits="userSpaceOnUse">
<stop stop-color="#ED823A"/>
<stop offset="1" stop-color="#F57347" stop-opacity="0.56"/>
</linearGradient>
</defs>
</svg>
