<svg width="22" height="20" viewBox="0 0 22 20" fill="none" xmlns="http://www.w3.org/2000/svg">
<path d="M21.1429 5.14286C20.8571 3 20.5714 1.42857 19.7143 0.857143C18.8571 0.142857 16.4286 0 10.7143 0C5 0 2.57143 0.142857 1.71429 0.857143C0.857143 1.42857 0.571429 3 0.285714 5.14286C8.9407e-08 7.28572 0 8.57143 0 10C0 11.4286 8.9407e-08 12.7143 0.285714 14.8571C0.571429 17 0.857143 18.5714 1.71429 19.1429C2.57143 19.8571 5 20 10.7143 20C16.4286 20 18.8571 19.8571 19.7143 19.1429C20.5714 18.5714 20.8571 17 21.1429 14.8571C21.4286 12.7143 21.4286 11.4286 21.4286 10C21.4286 8.57143 21.4286 7.28572 21.1429 5.14286ZM7.85714 15.1429V4.85714L16.4286 10L7.85714 15.1429Z" fill="white"/>
</svg>
